<?xml version="1.0" encoding="utf-8"?>
<!DOCTYPE svg PUBLIC "-//W3C//DTD SVG 1.1//EN" "http://www.w3.org/Graphics/SVG/1.1/DTD/svg11.dtd">
<svg version="1.1" id="Layer_1" xmlns="http://www.w3.org/2000/svg" xmlns:xlink="http://www.w3.org/1999/xlink" x="0px" y="0px"
	 width="150px" height="150px" viewBox="0 0 150 150" enable-background="new 0 0 150 150" xml:space="preserve">
<g opacity="0.8">
	<path fill="#F15A29" d="M79.269,60.787c-0.281,0.529-0.615,1.036-1.061,1.481c-2.408,2.408-6.313,2.408-8.721,0
		c-0.412-0.412-0.728-0.879-0.999-1.364c-0.473,0.872-0.741,1.871-0.741,2.933c0,3.406,2.761,6.167,6.167,6.167
		s6.167-2.761,6.167-6.167C80.081,62.727,79.783,61.687,79.269,60.787z"/>
	<path fill="#F15A29" d="M60.787,70.731c0.529,0.281,1.036,0.615,1.481,1.061c2.408,2.408,2.408,6.313,0,8.721
		c-0.412,0.412-0.879,0.728-1.364,0.999c0.872,0.473,1.871,0.741,2.933,0.741c3.406,0,6.167-2.761,6.167-6.167
		s-2.761-6.167-6.167-6.167C62.727,69.919,61.687,70.217,60.787,70.731z"/>
	<path fill="#F15A29" d="M70.731,89.213c0.281-0.529,0.615-1.036,1.061-1.481c2.408-2.408,6.313-2.408,8.721,0
		c0.412,0.412,0.728,0.879,0.999,1.364c0.473-0.872,0.741-1.871,0.741-2.933c0-3.406-2.761-6.167-6.167-6.167
		s-6.167,2.761-6.167,6.167C69.919,87.273,70.217,88.313,70.731,89.213z"/>
	<path fill="#F15A29" d="M89.213,79.269c-0.529-0.281-1.036-0.615-1.481-1.061c-2.408-2.408-2.408-6.313,0-8.721
		c0.412-0.412,0.879-0.728,1.364-0.999c-0.872-0.473-1.871-0.741-2.933-0.741c-3.406,0-6.167,2.761-6.167,6.167
		s2.761,6.167,6.167,6.167C87.273,80.081,88.313,79.783,89.213,79.269z"/>
		<animateTransform attributeName="transform"
                    attributeType="XML"
                    type="rotate"
                    from="0 75 75"
                    to="-360 75 75"
                    dur="1.5s"
                    repeatCount="indefinite"/>
</g>
<g opacity="0.8">
	<path fill="#F15A29" d="M79.522,46.863c-0.281,0.529-0.615,1.036-1.061,1.481c-2.408,2.408-6.313,2.408-8.721,0
		c-0.412-0.412-0.728-0.879-0.999-1.364C68.269,47.853,68,48.852,68,49.914c0,3.406,2.761,6.167,6.167,6.167
		s6.167-2.761,6.167-6.167C80.334,48.803,80.036,47.763,79.522,46.863z"/>
	<path fill="#F15A29" d="M58.302,51.906c0.175,0.572,0.297,1.168,0.297,1.797c0,3.406-2.761,6.167-6.167,6.167
		c-0.583,0-1.136-0.107-1.67-0.258c0.283,0.951,0.799,1.847,1.55,2.598c2.408,2.408,6.313,2.408,8.721,0
		c2.408-2.408,2.408-6.313,0-8.721C60.248,52.704,59.302,52.18,58.302,51.906z"/>
	<path fill="#F15A29" d="M46.863,70.478c0.529,0.281,1.036,0.615,1.481,1.061c2.408,2.408,2.408,6.313,0,8.721
		c-0.412,0.412-0.879,0.728-1.364,0.999C47.853,81.731,48.852,82,49.914,82c3.406,0,6.167-2.761,6.167-6.167
		s-2.761-6.167-6.167-6.167C48.803,69.666,47.763,69.964,46.863,70.478z"/>
	<path fill="#F15A29" d="M51.906,91.698c0.572-0.175,1.168-0.297,1.797-0.297c3.406,0,6.167,2.761,6.167,6.167
		c0,0.583-0.107,1.136-0.258,1.67c0.951-0.283,1.847-0.799,2.598-1.55c2.408-2.408,2.408-6.313,0-8.721
		c-2.408-2.408-6.313-2.408-8.721,0C52.704,89.752,52.18,90.698,51.906,91.698z"/>
	<path fill="#F15A29" d="M70.478,103.137c0.281-0.529,0.615-1.036,1.061-1.481c2.408-2.408,6.313-2.408,8.721,0
		c0.412,0.412,0.728,0.879,0.999,1.364c0.473-0.872,0.741-1.871,0.741-2.933c0-3.406-2.761-6.167-6.167-6.167
		s-6.167,2.761-6.167,6.167C69.666,101.197,69.964,102.237,70.478,103.137z"/>
	<path fill="#F15A29" d="M91.698,98.094c-0.175-0.572-0.297-1.168-0.297-1.797c0-3.406,2.761-6.167,6.167-6.167
		c0.583,0,1.136,0.107,1.67,0.258c-0.283-0.951-0.799-1.847-1.55-2.598c-2.408-2.408-6.313-2.408-8.721,0
		c-2.408,2.408-2.408,6.313,0,8.721C89.752,97.296,90.698,97.82,91.698,98.094z"/>
	<path fill="#F15A29" d="M103.137,79.522c-0.529-0.281-1.036-0.615-1.481-1.061c-2.408-2.408-2.408-6.313,0-8.721
		c0.412-0.412,0.879-0.728,1.364-0.999c-0.872-0.473-1.871-0.741-2.933-0.741c-3.406,0-6.167,2.761-6.167,6.167
		s2.761,6.167,6.167,6.167C101.197,80.334,102.237,80.036,103.137,79.522z"/>
	<path fill="#F15A29" d="M98.094,58.302c-0.572,0.175-1.168,0.297-1.797,0.297c-3.406,0-6.167-2.761-6.167-6.167
		c0-0.583,0.107-1.136,0.258-1.67c-0.951,0.283-1.847,0.799-2.598,1.55c-2.408,2.408-2.408,6.313,0,8.721
		c2.408,2.408,6.313,2.408,8.721,0C97.296,60.248,97.82,59.302,98.094,58.302z"/>
		<animateTransform attributeName="transform"
                    attributeType="XML"
                    type="rotate"
                    from="0 75 75"
                    to="360 75 75"
                    dur="2s"
                    repeatCount="indefinite"/>
</g>
</svg>
